<?xml version="1.0" standalone="no"?>
<!DOCTYPE svg PUBLIC "-//W3C//DTD SVG 20010904//EN"
 "http://www.w3.org/TR/2001/REC-SVG-20010904/DTD/svg10.dtd">
<svg version="1.0" xmlns="http://www.w3.org/2000/svg"
 width="254.000000pt" height="281.000000pt" viewBox="0 0 254.000000 281.000000"
 preserveAspectRatio="xMidYMid meet">

<g transform="translate(0.000000,281.000000) scale(0.100000,-0.100000)"
fill="#8b0000" stroke="none">
<path d="M1109 2795 c-27 -8 -70 -36 -100 -62 -222 -198 -930 -846 -953 -874
-58 -69 -56 -33 -56 -876 0 -766 0 -777 21 -820 11 -23 42 -62 69 -86 90 -81
30 -77 1104 -77 1096 0 1022 -6 1116 88 80 81 90 115 90 320 l0 164 -57 -6
c-32 -3 -200 -11 -373 -17 l-315 -12 -126 -62 -125 -62 19 -68 c31 -113 7
-168 -89 -204 -128 -48 -211 -4 -254 136 -11 36 -19 67 -18 68 2 1 36 6 75 12
140 21 217 82 217 171 0 26 -8 62 -18 81 -11 20 -19 61 -21 102 -2 55 -8 77
-29 109 -14 22 -26 51 -26 65 l0 24 68 -33 c88 -44 118 -51 126 -29 8 19 11
16 -43 37 -89 35 -173 110 -215 194 -18 34 -25 36 -100 26 l-46 -7 0 -57 c0
-69 -27 -102 -86 -104 l-37 -1 -41 116 c-36 104 -39 118 -26 134 8 10 64 58
123 107 93 75 114 88 145 88 25 0 110 -33 262 -100 124 -55 235 -100 248 -100
12 0 187 25 388 55 201 30 368 55 370 55 9 0 3 438 -6 471 -6 20 -23 54 -38
77 -38 56 -987 917 -1040 943 -55 27 -143 33 -203 14z m158 -251 c61 -38 68
-133 15 -187 -64 -63 -172 -38 -200 47 -36 110 87 202 185 140z m-270 -482
l61 -57 26 -113 26 -114 -35 -84 -35 -85 15 -60 c9 -34 15 -67 13 -74 -3 -13
-267 -230 -272 -223 -2 3 -17 51 -55 184 -20 69 -23 72 -99 131 -72 56 -81 67
-110 137 -18 41 -32 88 -32 103 0 41 28 195 37 204 5 4 21 9 37 11 28 3 29 1
67 -111 21 -63 41 -116 43 -119 9 -9 228 42 233 54 2 7 -9 65 -26 130 -17 64
-30 119 -28 120 5 5 52 23 62 23 6 0 38 -25 72 -57z m-178 -957 c11 -38 19
-70 18 -71 -3 -3 -128 -24 -144 -24 -17 0 -5 66 19 111 20 36 68 73 80 61 3
-4 15 -38 27 -77z m369 -127 c7 -7 12 -29 12 -50 0 -28 -6 -41 -22 -52 -36
-23 -386 -92 -406 -80 -18 12 -55 112 -48 131 5 11 30 20 107 37 23 5 28 0 49
-44 13 -28 24 -50 25 -50 1 0 26 4 54 10 71 13 119 37 127 63 3 12 11 28 16
35 13 15 70 16 86 0z m42 -200 c26 -29 25 -63 -3 -92 -19 -19 -48 -27 -162
-45 -77 -12 -154 -24 -172 -27 -59 -11 -97 61 -53 101 22 20 271 83 332 84 26
1 43 -6 58 -21z m44 -207 c24 -26 17 -70 -14 -92 -61 -45 -259 -65 -320 -34
-29 15 -60 60 -60 88 0 10 36 19 138 34 184 28 234 28 256 4z"/>
</g>
</svg>
